<svg width="221" height="16" viewBox="0 0 221 16" fill="none" xmlns="http://www.w3.org/2000/svg">
<path d="M158.861 0.638906L158.862 0.639228C158.762 0.640611 158.66 0.643831 158.556 0.648704C158.395 0.655967 158.235 0.663475 158.075 0.670922C156.916 0.718969 155.733 0.746666 154.541 0.754225C153.171 0.761349 151.8 0.767987 150.43 0.775481C148.978 0.783267 147.528 0.790796 146.075 0.79735C144.632 0.804614 143.187 0.809418 141.75 0.824446C140.023 0.846225 138.299 0.87653 136.633 0.967131C135.027 1.06294 133.454 1.1893 131.807 1.24755C129.749 1.33622 127.668 1.405 125.542 1.41522C121.693 1.45981 117.851 1.51723 113.975 1.52448C105.859 1.56512 97.7456 1.61145 89.7084 1.76033C86.3896 1.817 83.0793 1.88388 79.7649 1.94601C79.3762 1.93511 78.9873 1.92273 78.5964 1.90602C77.8727 1.87051 77.312 1.91113 76.9048 1.99863C76.6687 2.00234 76.4341 2.00789 76.1979 2.0116C73.6802 2.0527 69.6727 2.09955 67.1172 2.13154C65.8131 2.14766 64.5099 2.16438 63.2062 2.18118C57.5021 2.25874 51.7936 2.33406 46.1564 2.49467C45.8649 2.50653 45.4983 2.51682 45.1257 2.53176C39.856 2.49682 34.595 2.47596 29.3471 2.47807C26.833 2.46531 24.3162 2.44479 21.7973 2.42369C21.3133 2.41962 20.5094 2.27572 20.347 2.41383C20.3298 2.4286 20.3243 2.43325 20.3073 2.44764C20.6569 2.46019 20.8189 2.46594 20.8716 2.47904C20.6834 2.46841 20.4957 2.46001 20.3073 2.44764L20.3063 2.44765C18.5405 3.94647 18.3839 3.89059 20.4381 4.05998C20.5895 4.06833 20.7405 4.07463 20.8918 4.08248C18.9382 4.16734 16.9795 4.24761 15.0117 4.31879C11.8457 4.43058 8.63967 4.49859 5.40565 4.52754C2.6247 4.55227 1.68588 4.29149 4.4283 6.13427C4.43431 6.14948 4.44086 6.16238 4.44669 6.1779C4.45045 6.18829 4.47818 6.18998 4.5106 6.18921C4.73655 6.33069 5.42575 6.19262 5.88085 6.19599C8.11037 6.20186 10.3213 6.18191 12.5228 6.14897C12.6031 6.28027 12.811 6.48071 13.0818 6.75811C12.217 6.84935 11.4441 6.99297 11.0453 7.2413C8.49245 7.2282 5.94115 7.21709 3.38695 7.20166C-0.425488 7.28683 -0.776994 6.96202 1.29441 8.88785C1.41179 8.99697 1.96603 8.93756 2.30108 8.95225C2.43591 8.95817 2.57056 8.96254 2.7052 8.96777C2.62732 8.97678 2.58199 8.99239 2.60745 9.02298C4.13105 10.8507 3.60275 10.6293 6.86396 10.613C8.25516 10.5849 9.6447 10.5555 11.0349 10.5262C11.1855 10.6126 11.4002 10.7185 11.6861 10.847C11.5502 11.0951 11.4858 11.2802 11.4949 11.4141C11.1774 11.4176 10.8321 11.4216 10.5278 11.4248C8.05647 11.4569 5.59614 11.5052 3.15775 11.5777C2.74469 11.59 2.32598 11.5971 1.92413 11.6204C1.6403 11.637 0.989762 11.5986 1.10715 11.6971C1.74584 12.2328 2.88827 12.7177 3.80435 13.2255C3.81726 13.2248 3.83053 13.2246 3.84341 13.2239C3.84467 13.2263 3.84695 13.2288 3.84826 13.2313C3.8505 13.2356 3.84445 13.2389 3.83598 13.2417L3.83599 13.2421C3.8548 13.2526 3.87666 13.2627 3.89529 13.2732C5.27376 13.2239 6.65507 13.1788 8.03916 13.1359C7.7435 13.6424 9.14045 14.3383 11.3824 14.2715C15.1229 14.1906 18.8529 14.0977 22.5898 14.0126C22.5387 14.0712 22.4884 14.1301 22.4309 14.1875C23.4645 14.41 24.4226 14.6993 25.5316 14.8551C26.1188 14.9375 26.7175 14.8698 27.3078 14.8725C28.0613 14.8759 28.8123 14.8739 29.5632 14.8732C31.4079 14.8717 33.249 14.8645 35.0906 14.8583C35.5306 14.9646 36.1184 15.0237 36.8525 15.0021C39.6181 14.9425 42.3826 14.8759 45.1475 14.8112C46.1234 14.806 47.0996 14.8013 48.0755 14.7959C48.0111 14.8369 47.9473 14.8781 47.8791 14.9183C48.7461 15.1426 49.49 15.434 50.4796 15.5911C51.0035 15.6742 51.6461 15.606 52.2301 15.6088C52.9754 15.6123 53.7216 15.6103 54.4674 15.6097C57.1438 15.6077 59.8208 15.5976 62.4978 15.5883C68.9622 15.5578 75.4267 15.5177 81.8912 15.4852C88.5205 15.4443 95.1492 15.3582 101.777 15.2543C102.9 15.2336 104.023 15.2101 105.146 15.1869C112.145 15.3233 119.42 15.3738 126.741 15.3368C143.285 15.2505 159.383 14.721 172.53 13.8306C173.775 13.7853 175.019 13.7336 176.263 13.6813C178.143 13.6052 180.017 13.5196 181.903 13.4708C183.23 13.4388 184.559 13.4303 185.887 13.4223C187.017 13.4143 188.148 13.4129 189.278 13.4077C191.474 13.3957 191.544 13.3008 190.881 12.4298C191.966 12.4016 193.027 12.3731 194.112 12.3432C195.093 12.3399 195.729 12.3433 196.109 12.2861C196.421 12.2757 196.732 12.2648 197.044 12.2565C197.172 12.2533 197.455 12.2972 197.428 12.255C197.189 11.8894 197.039 11.6237 196.908 11.3979C196.933 11.3016 196.968 11.1889 196.999 11.0713C198.344 11.0398 199.689 11.0094 201.034 10.9766C205.573 10.881 206.935 10.8424 211.278 10.7849C212.367 10.7704 213.777 11.0241 214.545 10.7538C214.662 10.7127 214.764 10.6685 214.858 10.6227C215.485 10.7304 216.109 10.8382 216.057 10.7546C215.884 10.4778 215.823 10.1696 215.659 9.88131C215.804 9.62021 215.89 9.34959 216.058 9.10061C216.112 9.02226 215.542 9.12922 214.938 9.24531C214.841 9.19971 214.735 9.15563 214.612 9.11573C214.053 8.93358 213.18 9.02421 212.32 9.10369C212.806 8.75857 212.561 8.31723 211.649 8.08604C211.648 7.83023 211.516 7.6308 211.286 7.47289C211.295 7.43215 211.298 7.39113 211.314 7.35097C211.281 7.35174 211.249 7.35207 211.216 7.35261C211.273 7.24775 211.25 7.15833 211.155 7.08176C213.159 7.02196 215.158 6.93912 217.159 6.86233C217.478 6.84155 217.803 6.83455 218.129 6.82854C218.376 6.84557 218.617 6.86055 218.701 6.81629C218.904 6.81106 219.106 6.80461 219.306 6.79277C219.553 6.77815 220.07 6.81719 220.039 6.73322C219.575 5.4446 219.855 5.17024 218.977 5.14197C218.999 5.11827 218.873 5.1276 218.722 5.14214C218.429 5.14397 218.063 5.15593 217.533 5.16985C216.915 5.19462 216.296 5.21716 215.678 5.24013C215.802 4.91727 215.396 4.57583 214.294 4.40704C214.581 4.39144 214.867 4.37504 215.152 4.35592C215.417 4.33813 215.96 4.3828 215.941 4.29188C215.543 2.42227 216.056 2.63725 212.748 2.72875C211.597 2.76772 210.445 2.80588 209.295 2.84561C208.702 2.86608 208.574 2.87064 208.086 2.88773C208.208 2.69982 208.163 2.6662 207.616 2.66752C207.615 2.65065 207.527 2.66473 207.467 2.66876C207.399 2.66939 207.322 2.66981 207.242 2.67079C207.008 2.67199 206.744 2.67289 206.554 2.67364C206.368 2.67434 206.182 2.67442 205.996 2.6745C204.457 2.67464 202.917 2.66914 201.383 2.63937C199.6 2.60561 197.814 2.59738 196.028 2.58149C195.687 2.58009 195.344 2.58001 195.003 2.58023C196.079 2.08302 195.278 1.24752 192.964 1.27911L192.964 1.27944C192.863 1.28083 192.759 1.28406 192.652 1.28896C192.488 1.29627 192.323 1.30382 192.159 1.31132C190.975 1.35957 189.782 1.38743 188.593 1.39496C187.228 1.40203 185.862 1.40861 184.497 1.41605C183.051 1.42378 181.606 1.43125 180.16 1.43774C178.722 1.44495 177.284 1.44968 175.846 1.4647C174.116 1.48651 172.384 1.51691 170.666 1.60806C169.003 1.70446 167.353 1.83161 165.677 1.89018C165.229 1.9092 164.78 1.92637 164.332 1.94316C163.848 1.93941 163.363 1.93566 162.879 1.93141C162.534 1.93006 162.19 1.92999 161.846 1.93023C162.575 1.43665 161.171 0.607452 158.862 0.638995L158.861 0.638906ZM3.83596 13.2418C3.82596 13.2363 3.81421 13.231 3.8044 13.2255C3.70658 13.2303 3.60834 13.2346 3.51103 13.24C3.41418 13.2453 3.7671 13.2644 3.83596 13.2415L3.83596 13.2418ZM5.32585 10.5781C5.24508 10.5984 5.0256 10.5947 4.88573 10.5904C5.03557 10.5932 5.18131 10.5861 5.32585 10.5781Z" fill="url(#paint0_linear_717_2502)"/>
<defs>
<linearGradient id="paint0_linear_717_2502" x1="4.06421" y1="6.79313" x2="412.197" y2="4.8998" gradientUnits="userSpaceOnUse">
<stop stop-color="#5E44DD"/>
<stop offset="1" stop-color="#E2148E"/>
</linearGradient>
</defs>
</svg>
