<svg width="76" height="24" viewBox="0 0 76 24" fill="none" xmlns="http://www.w3.org/2000/svg">
<path d="M6.77207 6.65429V7.37819H22.6669V10.0789H14.5516V11.0255H23.5064V13.949H0V11.0255H8.92682V10.0789H1.09137V4.00928H16.8183V3.25754H1.09137V0.612529H22.387V6.65429H6.77207ZM1.06338 20.297L20.4282 18.0975H1.06338V14.8956H22.5829V18.5429L5.40087 20.5476H22.7788V24H1.06338V20.297Z" fill="#222222"/>
<path d="M48.6198 0.974478V10.8585H27.2682V0.974478H48.6198ZM26.3168 12.2227H49.8231V16.3991H41.2321V18.5986H35.7193V16.3991H26.3168V12.2227ZM27.2402 17.5406H32.809V19.7401H48.9836V23.7216H27.2402V17.5406Z" fill="#222222"/>
<path d="M76 19.7401V23.8886H54.7603V19.6566L73.1457 16.8724H54.7603V13.1415H75.8041V17.29L59.5735 19.7401H76ZM51.906 1.7819H56.8591V0H62.3719V1.7819H67.353V5.40139H60.7488L60.3011 6.37587H65.4501L67.381 11.7494H62.0641L60.1892 6.59861L57.6986 11.7494H52.0459L55.1801 5.40139H51.906V1.7819ZM67.5489 6.43155H70.2353V0.835267H75.7761V11.9443H70.2353V10.5244H67.5489V6.43155Z" fill="#222222"/>
<path d="M33.9592 7.34433C32.3174 7.34433 31.4966 6.4863 31.4966 4.77024L31.5525 4.10833C31.6458 4.4352 31.8417 4.70487 32.1402 4.91733C32.4574 5.1298 32.8118 5.23603 33.2036 5.23603C33.67 5.23603 34.0711 5.08894 34.4069 4.79476C34.7614 4.50057 34.9386 4.14919 34.9386 3.7406C34.9386 3.34836 34.7707 3.00515 34.4349 2.71097C34.1177 2.41679 33.7353 2.25335 33.2875 2.22066L33.9592 2.17163C34.8546 2.17163 35.4889 2.39227 35.8621 2.83354C36.2352 3.25847 36.4217 3.90404 36.4217 4.77024C36.4217 6.4863 35.6009 7.34433 33.9592 7.34433Z" fill="white"/>
<path d="M37.0374 9.62424C36.9068 9.39543 36.8415 9.01136 36.8415 8.47203C36.8415 7.47508 37.1586 6.9766 37.7929 6.9766C38.166 6.9766 38.4179 7.09918 38.5485 7.34433C38.6977 7.57314 38.7724 7.94904 38.7724 8.47203C38.7724 9.46898 38.4459 9.96745 37.7929 9.96745C37.4198 9.96745 37.168 9.85305 37.0374 9.62424Z" fill="white"/>
<path d="M41.6547 7.34433C40.0316 7.34433 39.2201 6.4863 39.2201 4.77024C39.2201 4.4924 39.2388 4.23908 39.2761 4.01027C39.3507 4.35348 39.5466 4.64766 39.8637 4.89281C40.1809 5.12162 40.5447 5.23603 40.9551 5.23603C41.4215 5.23603 41.8226 5.08894 42.1584 4.79476C42.4942 4.50057 42.6621 4.14919 42.6621 3.7406C42.6621 3.34836 42.4942 3.00515 42.1584 2.71097C41.8226 2.40044 41.4308 2.23701 40.9831 2.22066L41.6547 2.17163C42.5688 2.17163 43.2125 2.39227 43.5856 2.83354C43.9587 3.25847 44.1452 3.90404 44.1452 4.77024C44.1452 6.4863 43.3151 7.34433 41.6547 7.34433Z" fill="white"/>
</svg>
