<svg width="30" height="31" viewBox="0 0 30 31" fill="none" xmlns="http://www.w3.org/2000/svg">
<rect x="3" y="3.36035" width="24" height="24" rx="12" fill="#5E44DD" stroke="#5E44DD" stroke-width="2"/>
<mask id="path-2-inside-1_489_1215" fill="white">
<path d="M20.2059 10.4653L12.9825 17.8234L10.3458 15.1095C10.2085 14.9976 9.98876 14.9976 9.8789 15.1095L9.0824 15.9209C8.97253 16.0328 8.97253 16.2566 9.0824 16.3965L12.7628 20.1175C12.9001 20.2574 13.0924 20.2574 13.2297 20.1175L21.4693 11.7243C21.5792 11.6123 21.5792 11.3885 21.4693 11.2486L20.6728 10.4653C20.563 10.3254 20.3432 10.3254 20.2059 10.4653Z"/>
</mask>
<path d="M20.2059 10.4653L21.6331 11.8664L20.2059 10.4653ZM12.9825 17.8234L11.548 19.217L12.9751 20.6858L14.4097 19.2244L12.9825 17.8234ZM10.3458 15.1095L11.7803 13.7159L11.6993 13.6325L11.6092 13.5591L10.3458 15.1095ZM9.8789 15.1095L11.3061 16.5106L9.8789 15.1095ZM9.0824 15.9209L7.65518 14.5198H7.65518L9.0824 15.9209ZM9.0824 16.3965L7.50949 17.6318L7.58007 17.7217L7.66044 17.8029L9.0824 16.3965ZM12.7628 20.1175L14.19 18.7164L14.1847 18.7111L12.7628 20.1175ZM13.2297 20.1175L14.6569 21.5186L13.2297 20.1175ZM21.4693 11.7243L20.0421 10.3232L21.4693 11.7243ZM21.4693 11.2486L23.0422 10.0133L22.9631 9.91257L22.8717 9.82272L21.4693 11.2486ZM20.6728 10.4653L19.0999 11.7006L19.1791 11.8013L19.2704 11.8912L20.6728 10.4653ZM18.7787 9.06417L11.5553 16.4223L14.4097 19.2244L21.6331 11.8664L18.7787 9.06417ZM14.4169 16.4297L11.7803 13.7159L8.91136 16.5032L11.548 19.217L14.4169 16.4297ZM11.6092 13.5591C11.1459 13.1815 10.5969 13.0256 10.1021 13.0256C9.62042 13.0256 8.97117 13.1793 8.45168 13.7084L11.3061 16.5106C10.8965 16.9279 10.412 17.0256 10.1021 17.0256C9.77887 17.0256 9.40842 16.9256 9.08237 16.6599L11.6092 13.5591ZM8.45168 13.7084L7.65518 14.5198L10.5096 17.322L11.3061 16.5106L8.45168 13.7084ZM7.65518 14.5198C7.14063 15.0439 7 15.6855 7 16.1482C7 16.6265 7.14455 17.1671 7.50949 17.6318L10.6553 15.1612C10.9104 15.486 11 15.8447 11 16.1482C11 16.436 10.9143 16.9097 10.5096 17.322L7.65518 14.5198ZM7.66044 17.8029L11.3408 21.5239L14.1847 18.7111L10.5044 14.9901L7.66044 17.8029ZM11.3356 21.5186C11.7397 21.9302 12.3216 22.2224 12.9962 22.2224C13.6708 22.2224 14.2528 21.9302 14.6569 21.5186L11.8025 18.7164C12.0692 18.4447 12.4864 18.2224 12.9962 18.2224C13.506 18.2224 13.9232 18.4447 14.19 18.7164L11.3356 21.5186ZM14.6569 21.5186L22.8965 13.1253L20.0421 10.3232L11.8025 18.7164L14.6569 21.5186ZM22.8965 13.1253C23.4111 12.6012 23.5517 11.9596 23.5517 11.4969C23.5517 11.0186 23.4072 10.478 23.0422 10.0133L19.8964 12.4839C19.6413 12.1592 19.5517 11.8004 19.5517 11.4969C19.5517 11.2091 19.6374 10.7354 20.0421 10.3232L22.8965 13.1253ZM22.8717 9.82272L22.0752 9.03935L19.2704 11.8912L20.0669 12.6746L22.8717 9.82272ZM22.2457 9.22997C21.2563 7.97007 19.6014 8.22616 18.7787 9.06417L21.6331 11.8664C21.0851 12.4246 19.8697 12.6807 19.0999 11.7006L22.2457 9.22997Z" fill="white" mask="url(#path-2-inside-1_489_1215)"/>
</svg>
