<svg width="20" height="22" viewBox="0 0 20 22" fill="none" xmlns="http://www.w3.org/2000/svg">
<path d="M10.2969 5.07692C11.4063 5.07692 12.7969 4.40559 13.625 3.51049C14.375 2.6993 14.9219 1.56643 14.9219 0.433567C14.9219 0.279721 14.9062 0.125874 14.875 0C13.6406 0.041958 12.1563 0.741259 11.2656 1.67832C10.5625 2.39161 9.92188 3.51049 9.92188 4.65734C9.92188 4.82517 9.95313 4.99301 9.96875 5.04895C10.0469 5.06294 10.1719 5.07692 10.2969 5.07692ZM6.39063 22C7.90625 22 8.57812 21.0909 10.4688 21.0909C12.3906 21.0909 12.8125 21.972 14.5 21.972C16.1562 21.972 17.2656 20.6014 18.3125 19.2587C19.4844 17.7203 19.9688 16.2098 20 16.1399C19.8906 16.1119 16.7188 14.951 16.7188 11.6923C16.7188 8.86713 19.2188 7.59441 19.3594 7.4965C17.7031 5.37063 15.1875 5.31468 14.5 5.31468C12.6406 5.31468 11.125 6.32168 10.1719 6.32168C9.14062 6.32168 7.78125 5.37063 6.17188 5.37063C3.10938 5.37063 0 7.63636 0 11.9161C0 14.5734 1.15625 17.3846 2.57812 19.2028C3.79687 20.7413 4.85938 22 6.39063 22Z" fill="white"/>
</svg>
