<svg width="20" height="20" viewBox="0 0 20 20" fill="none" xmlns="http://www.w3.org/2000/svg">
<path d="M20 10.2281C20.001 9.54678 19.942 8.86663 19.8244 8.19482H10.2024V12.0463H15.7134C15.4856 13.289 14.7495 14.387 13.6756 15.0848V17.5847H16.9648C18.8904 15.8446 20 13.271 20 10.2281Z" fill="#4285F4"/>
<path d="M10.2024 19.9999C12.9557 19.9999 15.2743 19.1139 16.9648 17.5862L13.6756 15.0862C12.7601 15.6944 11.5812 16.0419 10.2024 16.0419C7.54129 16.0419 5.28248 14.2834 4.47473 11.9141H1.08643V14.4904C2.81835 17.8679 6.34542 19.9996 10.2024 19.9999Z" fill="#34A853"/>
<path d="M4.47472 11.914C4.04774 10.6724 4.04774 9.32801 4.47472 8.08644V5.51025H1.08642C-0.362139 8.33518 -0.362139 11.6653 1.08642 14.4904L4.47472 11.914Z" fill="#FBBC04"/>
<path d="M10.2024 3.95889C11.6576 3.9355 13.0635 4.47435 14.1162 5.459L17.0285 2.60464C15.182 0.905009 12.7356 -0.0282922 10.2024 0.000653722C6.34542 0.000817248 2.81835 2.13268 1.08643 5.51035L4.47473 8.08654C5.28248 5.71723 7.54129 3.95889 10.2024 3.95889Z" fill="#EA4335"/>
</svg>
