<svg width="334" height="193" viewBox="0 0 334 193" fill="none" xmlns="http://www.w3.org/2000/svg">
<path d="M239.722 142.474L239.724 142.475C239.582 142.48 239.438 142.49 239.292 142.502C239.067 142.521 238.841 142.54 238.616 142.559C236.986 142.686 235.321 142.774 233.642 142.823C231.712 142.877 229.781 142.929 227.851 142.983C225.807 143.04 223.763 143.097 221.717 143.151C219.685 143.207 217.649 143.258 215.625 143.329C213.192 143.421 210.766 143.53 208.424 143.754C206.167 143.987 203.958 144.278 201.641 144.439C198.746 144.671 195.818 144.865 192.824 144.946C187.403 145.144 181.994 145.366 176.533 145.492C165.101 145.805 153.673 146.129 142.358 146.651C137.686 146.857 133.026 147.083 128.36 147.299C127.811 147.289 127.263 147.276 126.711 147.255C125.689 147.207 124.902 147.302 124.333 147.484C124.001 147.498 123.67 147.516 123.338 147.53C119.793 147.682 114.15 147.889 110.551 148.025C108.715 148.094 106.88 148.164 105.044 148.234C97.0118 148.55 88.9735 148.861 81.0405 149.336C80.6306 149.368 80.1146 149.398 79.5905 149.438C72.164 149.522 64.7507 149.633 57.3571 149.788C53.8143 149.836 50.2671 149.869 46.7172 149.9C46.035 149.906 44.8941 149.649 44.6733 149.923C44.6499 149.952 44.6424 149.961 44.6193 149.99C45.1125 150.004 45.3412 150.011 45.4161 150.035C45.1504 150.019 44.8854 150.008 44.6193 149.99L44.6179 149.99C42.2165 152.959 41.9928 152.855 44.8967 153.125C45.1105 153.137 45.3235 153.145 45.5372 153.156C42.7896 153.377 40.0347 153.59 37.2663 153.785C32.8122 154.094 28.2993 154.319 23.7446 154.469C19.8279 154.597 18.4902 154.116 22.4603 157.625C22.4697 157.655 22.4796 157.68 22.4888 157.71C22.4947 157.73 22.5338 157.732 22.5795 157.73C22.906 157.999 23.869 157.71 24.5104 157.704C27.6519 157.651 30.7657 157.548 33.8654 157.421C33.9862 157.674 34.2906 158.058 34.6881 158.591C33.475 158.793 32.3944 159.095 31.8468 159.59C28.2494 159.638 24.6543 159.69 21.0548 159.734C15.6884 160.009 15.1744 159.387 18.204 163.077C18.3756 163.286 19.1531 163.154 19.626 163.173C19.8163 163.181 20.0062 163.186 20.1962 163.192C20.087 163.212 20.024 163.243 20.0617 163.302C22.3138 166.817 21.5567 166.401 26.1504 166.275C28.1088 166.181 30.0649 166.083 32.0218 165.986C32.2389 166.15 32.5476 166.35 32.9578 166.592C32.7807 167.079 32.7006 167.441 32.7211 167.702C32.274 167.718 31.7878 167.735 31.3593 167.75C27.8792 167.884 24.4157 168.049 20.9845 168.261C20.4032 168.296 19.8137 168.322 19.2489 168.379C18.85 168.42 17.9312 168.364 18.1023 168.552C19.033 169.577 20.6706 170.488 21.9906 171.45C22.0087 171.449 22.0274 171.448 22.0455 171.446C22.0474 171.451 22.0508 171.455 22.0528 171.46C22.0562 171.468 22.0478 171.475 22.0361 171.481L22.0361 171.482C22.0632 171.502 22.0946 171.521 22.1214 171.541C24.0607 171.405 26.0042 171.277 27.9518 171.154C27.5644 172.148 29.5728 173.463 32.7276 173.268C37.9928 173.003 43.2426 172.715 48.5026 172.441C48.4341 172.557 48.3666 172.673 48.2889 172.786C49.758 173.19 51.1244 173.725 52.6959 173.997C53.528 174.14 54.3676 173.991 55.1994 173.979C56.2611 173.964 57.3191 173.939 58.3771 173.916C60.976 173.86 63.5694 173.793 66.1636 173.727C66.7898 173.922 67.6212 174.02 68.6542 173.957C72.5473 173.761 76.4383 173.551 80.33 173.346C81.7046 173.308 83.0797 173.27 84.4543 173.232C84.366 173.313 84.2784 173.395 84.1847 173.476C85.4192 173.887 86.484 174.433 87.8873 174.711C88.6303 174.857 89.5317 174.706 90.3546 174.695C91.4049 174.68 92.4561 174.655 93.5067 174.632C97.2775 174.551 101.049 174.454 104.819 174.359C113.925 174.113 123.031 173.849 132.137 173.599C141.474 173.328 150.808 172.969 160.141 172.576C161.722 172.503 163.302 172.426 164.883 172.348C174.752 172.412 185.005 172.3 195.316 172.017C218.621 171.372 241.271 169.877 259.741 167.765C261.493 167.641 263.243 167.504 264.992 167.366C267.636 167.164 270.272 166.943 272.926 166.794C274.794 166.694 276.666 166.639 278.536 166.585C280.128 166.537 281.721 166.501 283.313 166.459C286.407 166.372 286.5 166.185 285.515 164.508C287.042 164.422 288.535 164.336 290.063 164.247C291.445 164.212 292.34 164.2 292.873 164.078C293.311 164.049 293.749 164.018 294.187 163.993C294.368 163.983 294.77 164.061 294.728 163.979C294.371 163.274 294.144 162.761 293.947 162.326C293.976 162.137 294.019 161.917 294.056 161.687C295.949 161.587 297.843 161.489 299.736 161.386C306.125 161.069 308.041 160.955 314.157 160.718C315.691 160.658 317.692 161.112 318.758 160.563C318.92 160.48 319.062 160.391 319.192 160.299C320.082 160.49 320.967 160.682 320.889 160.521C320.629 159.987 320.525 159.389 320.278 158.832C320.466 158.32 320.572 157.79 320.795 157.301C320.865 157.147 320.069 157.371 319.225 157.615C319.085 157.529 318.933 157.446 318.758 157.372C317.96 157.033 316.735 157.235 315.529 157.414C316.193 156.728 315.823 155.876 314.524 155.452C314.508 154.954 314.311 154.57 313.977 154.269C313.988 154.189 313.99 154.109 314.009 154.031C313.964 154.033 313.918 154.035 313.871 154.037C313.946 153.831 313.908 153.658 313.77 153.511C316.59 153.337 319.402 153.118 322.216 152.911C322.665 152.861 323.123 152.838 323.581 152.817C323.93 152.843 324.27 152.865 324.387 152.777C324.672 152.761 324.956 152.742 325.238 152.714C325.584 152.678 326.315 152.739 326.267 152.576C325.539 150.081 325.917 149.539 324.678 149.509C324.708 149.462 324.531 149.484 324.32 149.517C323.906 149.529 323.391 149.562 322.645 149.605C321.776 149.671 320.906 149.733 320.036 149.795C320.193 149.163 319.601 148.51 318.038 148.213C318.441 148.174 318.844 148.134 319.244 148.089C319.616 148.046 320.384 148.118 320.351 147.941C319.683 144.313 320.419 144.716 315.763 144.99C314.143 145.099 312.523 145.206 310.904 145.317C310.071 145.374 309.891 145.386 309.204 145.434C309.366 145.064 309.299 145 308.529 145.019C308.526 144.986 308.404 145.016 308.319 145.025C308.223 145.028 308.116 145.031 308.002 145.036C307.673 145.045 307.301 145.054 307.033 145.061C306.771 145.068 306.51 145.073 306.248 145.079C304.079 145.123 301.909 145.157 299.745 145.143C297.232 145.129 294.715 145.165 292.198 145.185C291.717 145.192 291.235 145.202 290.754 145.212C292.242 144.213 291.065 142.609 287.806 142.738L287.806 142.738C287.663 142.744 287.517 142.753 287.367 142.766C287.136 142.785 286.905 142.804 286.674 142.824C285.008 142.952 283.329 143.04 281.654 143.089C279.732 143.142 277.808 143.194 275.885 143.248C273.848 143.305 271.812 143.361 269.775 143.416C267.751 143.471 265.724 143.522 263.7 143.592C261.264 143.685 258.825 143.794 256.409 144.021C254.073 144.256 251.755 144.552 249.397 144.714C248.767 144.764 248.136 144.81 247.505 144.856C246.822 144.863 246.14 144.869 245.457 144.875C244.971 144.882 244.486 144.892 244.001 144.902C245.001 143.92 242.974 142.346 239.723 142.474L239.722 142.474ZM22.036 171.481C22.0216 171.471 22.0048 171.461 21.9906 171.45C21.8531 171.462 21.7149 171.474 21.5781 171.487C21.442 171.5 21.9403 171.527 22.036 171.48L22.036 171.481ZM23.9814 166.252C23.8687 166.294 23.5593 166.293 23.362 166.288C23.5733 166.29 23.7782 166.272 23.9814 166.252Z" fill="url(#paint0_linear_199_2083)"/>
<g filter="url(#filter0_ddif_199_2083)">
<path d="M88.1094 46.018C88.1094 39.9393 86.5114 36.3987 83.3154 35.396H106.063C104.685 35.6467 103.525 36.6807 102.585 38.498C101.645 40.2527 101.175 42.7593 101.175 46.018V89.352H113.865C118.753 89.352 122.075 88.8507 123.829 87.848C125.647 86.8453 127.401 84.8087 129.093 81.738L126.555 98H83.7854C85.0387 97.7493 86.0727 96.6213 86.8874 94.616C87.702 92.6107 88.1094 89.8533 88.1094 86.344V46.018ZM165.936 99.41C156.85 99.41 149.455 96.4647 143.752 90.574C138.112 84.6207 135.292 76.9753 135.292 67.638C135.292 61.434 136.671 55.7627 139.428 50.624C142.248 45.4227 146.196 41.3493 151.272 38.404C156.348 35.4587 161.957 33.986 168.098 33.986C177.122 33.986 184.423 36.9627 190 42.916C195.64 48.8067 198.46 56.4207 198.46 65.758C198.46 75.2833 195.421 83.2733 189.342 89.728C183.264 96.1827 175.462 99.41 165.936 99.41ZM168.098 89.728C173.049 89.728 177.06 87.7853 180.13 83.9C183.264 79.952 184.83 74.7507 184.83 68.296C184.83 60.9013 183.107 54.9167 179.66 50.342C176.214 45.7673 171.576 43.48 165.748 43.48C160.798 43.48 156.756 45.3913 153.622 49.214C150.552 52.974 149.016 58.144 149.016 64.724C149.016 72.3067 150.708 78.3853 154.092 82.96C157.476 87.472 162.145 89.728 168.098 89.728ZM209.924 46.018C209.924 39.9393 208.326 36.3987 205.13 35.396H227.878C226.499 35.6467 225.34 36.6807 224.4 38.498C223.46 40.2527 222.99 42.7593 222.99 46.018V89.352H235.68C240.568 89.352 243.889 88.8507 245.644 87.848C247.461 86.8453 249.216 84.8087 250.908 81.738L248.37 98H205.6C206.853 97.7493 207.887 96.6213 208.702 94.616C209.516 92.6107 209.924 89.8533 209.924 86.344V46.018ZM37.8084 124.46C37.8084 120.82 36.5284 118.68 33.9684 118.04H48.5484L59.1684 142.22L69.6684 118.04H82.8084C81.8884 118.2 81.1084 118.86 80.4684 120.02C79.8684 121.18 79.5684 122.72 79.5684 124.64V151.22C79.5684 152.74 79.7284 153.98 80.0484 154.94C80.3684 155.9 80.7884 156.64 81.3084 157.16C81.8284 157.68 82.3284 157.96 82.8084 158H68.5284C69.3284 157.88 70.0084 157.26 70.5684 156.14C71.1284 154.98 71.4084 153.34 71.4084 151.22V128.42L57.9084 158.96L44.0484 128.48V150.86C44.0484 152.46 44.2484 153.8 44.6484 154.88C45.0484 155.92 45.5284 156.68 46.0884 157.16C46.6484 157.64 47.2284 157.92 47.8284 158H34.1484C34.7484 157.92 35.3084 157.64 35.8284 157.16C36.3884 156.68 36.8484 155.92 37.2084 154.88C37.6084 153.8 37.8084 152.46 37.8084 150.86V124.46ZM88.7428 136.46C88.7428 135.02 88.5628 133.88 88.2028 133.04C87.8428 132.16 87.4028 131.5 86.8828 131.06C86.4028 130.58 85.7228 130.24 84.8428 130.04H96.4228V147.26C96.4628 151.14 97.8028 153.08 100.443 153.08C102.043 153.08 103.383 152.46 104.463 151.22C105.543 149.98 106.083 148.52 106.083 146.84V136.04C106.083 134.4 105.843 133.06 105.363 132.02C104.883 130.98 104.123 130.32 103.083 130.04H113.703V149.24C113.703 151.04 113.943 152.4 114.423 153.32C114.903 154.24 115.743 154.7 116.943 154.7H117.783L106.323 159.14L106.263 154.76C105.183 156.04 103.823 157.06 102.183 157.82C100.543 158.54 98.9628 158.9 97.4428 158.9C91.6428 158.86 88.7428 155.54 88.7428 148.94V136.46ZM121.854 138.74C121.854 136.78 121.594 135.36 121.074 134.48C120.554 133.6 119.714 133.16 118.554 133.16H117.714L129.234 128.66L129.294 132.98C130.254 131.86 131.574 130.9 133.254 130.1C134.934 129.3 136.554 128.9 138.114 128.9C140.714 128.9 142.814 129.7 144.414 131.3C146.014 132.86 146.814 135.32 146.814 138.68V151.64C146.814 153.08 146.954 154.26 147.234 155.18C147.554 156.1 147.934 156.78 148.374 157.22C148.814 157.66 149.274 157.92 149.754 158H136.434C137.274 157.8 137.934 157.2 138.414 156.2C138.894 155.2 139.134 153.76 139.134 151.88V140.6C139.134 136.68 137.774 134.72 135.054 134.72C133.574 134.72 132.274 135.3 131.154 136.46C130.034 137.62 129.474 139.08 129.474 140.84V151.88C129.474 153.76 129.734 155.24 130.254 156.32C130.814 157.36 131.494 157.92 132.294 158H118.794C119.354 157.92 119.854 157.66 120.294 157.22C120.734 156.78 121.094 156.14 121.374 155.3C121.694 154.42 121.854 153.26 121.854 151.82V138.74ZM186.697 153.32C185.297 154.96 183.417 156.3 181.057 157.34C178.737 158.38 176.257 158.9 173.617 158.9C167.457 158.9 162.537 157.04 158.857 153.32C155.217 149.56 153.397 144.74 153.397 138.86C153.397 134.86 154.297 131.2 156.097 127.88C157.897 124.52 160.437 121.9 163.717 120.02C167.037 118.1 170.857 117.14 175.177 117.14C179.457 117.14 183.037 117.92 185.917 119.48V131C184.997 128.64 183.577 126.74 181.657 125.3C179.737 123.86 177.357 123.14 174.517 123.14C170.957 123.14 168.037 124.52 165.757 127.28C163.517 130 162.397 133.48 162.397 137.72C162.397 142.04 163.517 145.6 165.757 148.4C168.037 151.2 171.017 152.6 174.697 152.6C176.857 152.6 179.017 152.06 181.177 150.98C183.337 149.86 185.177 148.34 186.697 146.42V153.32ZM193.517 127.28C193.517 122.88 192.297 120.68 189.857 120.68H189.137L201.137 115.94V132.68C202.017 131.76 203.277 130.9 204.917 130.1C206.557 129.3 208.137 128.9 209.657 128.9C212.337 128.9 214.457 129.74 216.017 131.42C217.617 133.1 218.417 135.52 218.417 138.68V151.7C218.417 153.1 218.557 154.26 218.837 155.18C219.157 156.06 219.517 156.72 219.917 157.16C220.317 157.6 220.817 157.88 221.417 158H208.457C209.177 157.84 209.737 157.24 210.137 156.2C210.537 155.16 210.737 153.72 210.737 151.88V140.6C210.737 136.68 209.357 134.72 206.597 134.72C205.157 134.72 203.877 135.28 202.757 136.4C201.677 137.52 201.137 139 201.137 140.84V151.88C201.137 153.8 201.417 155.28 201.977 156.32C202.537 157.32 203.197 157.88 203.957 158H190.397C190.957 157.92 191.457 157.66 191.897 157.22C192.337 156.78 192.717 156.12 193.037 155.24C193.357 154.32 193.517 153.12 193.517 151.64V127.28ZM241.138 153.14C242.818 153.14 244.458 152.8 246.058 152.12C247.698 151.4 249.078 150.36 250.198 149C248.878 155.6 244.798 158.9 237.958 158.9C233.918 158.9 230.678 157.54 228.238 154.82C225.838 152.06 224.638 148.62 224.638 144.5C224.638 140.1 225.898 136.4 228.418 133.4C230.978 130.4 234.198 128.9 238.078 128.9C241.758 128.9 244.618 130.3 246.658 133.1C248.698 135.86 249.738 139.8 249.778 144.92H232.078C232.598 147.68 233.678 149.74 235.318 151.1C236.998 152.46 238.938 153.14 241.138 153.14ZM242.518 140.6C242.518 138.64 242.098 137.02 241.258 135.74C240.458 134.42 239.318 133.76 237.838 133.76C236.318 133.76 235.018 134.42 233.938 135.74C232.898 137.02 232.278 138.64 232.078 140.6H242.518ZM268.511 158.9C264.231 158.9 260.771 157.58 258.131 154.94C255.491 152.3 254.171 148.8 254.171 144.44C254.171 140.04 255.571 136.36 258.371 133.4C261.171 130.4 264.731 128.9 269.051 128.9C273.331 128.9 276.811 130.22 279.491 132.86C282.211 135.46 283.571 138.94 283.571 143.3C283.571 147.9 282.171 151.66 279.371 154.58C276.571 157.46 272.951 158.9 268.511 158.9ZM269.351 153.5C271.191 153.5 272.691 152.66 273.851 150.98C275.051 149.26 275.651 147.1 275.651 144.5C275.651 141.62 274.951 139.2 273.551 137.24C272.151 135.28 270.391 134.3 268.271 134.3C266.391 134.3 264.871 135.12 263.711 136.76C262.551 138.36 261.971 140.46 261.971 143.06C261.971 146.02 262.671 148.5 264.071 150.5C265.471 152.5 267.231 153.5 269.351 153.5ZM289.842 126.98C289.842 124.82 289.562 123.2 289.002 122.12C288.442 121.04 287.482 120.5 286.122 120.5H285.582L297.522 116.18V151.64C297.522 153.08 297.662 154.26 297.942 155.18C298.222 156.06 298.582 156.74 299.022 157.22C299.502 157.66 299.982 157.92 300.462 158H286.842C287.322 157.92 287.782 157.68 288.222 157.28C288.662 156.84 289.042 156.18 289.362 155.3C289.682 154.42 289.842 153.2 289.842 151.64V126.98Z" fill="url(#paint1_linear_199_2083)" shape-rendering="crispEdges"/>
<path d="M88.1094 46.018C88.1094 39.9393 86.5114 36.3987 83.3154 35.396H106.063C104.685 35.6467 103.525 36.6807 102.585 38.498C101.645 40.2527 101.175 42.7593 101.175 46.018V89.352H113.865C118.753 89.352 122.075 88.8507 123.829 87.848C125.647 86.8453 127.401 84.8087 129.093 81.738L126.555 98H83.7854C85.0387 97.7493 86.0727 96.6213 86.8874 94.616C87.702 92.6107 88.1094 89.8533 88.1094 86.344V46.018ZM165.936 99.41C156.85 99.41 149.455 96.4647 143.752 90.574C138.112 84.6207 135.292 76.9753 135.292 67.638C135.292 61.434 136.671 55.7627 139.428 50.624C142.248 45.4227 146.196 41.3493 151.272 38.404C156.348 35.4587 161.957 33.986 168.098 33.986C177.122 33.986 184.423 36.9627 190 42.916C195.64 48.8067 198.46 56.4207 198.46 65.758C198.46 75.2833 195.421 83.2733 189.342 89.728C183.264 96.1827 175.462 99.41 165.936 99.41ZM168.098 89.728C173.049 89.728 177.06 87.7853 180.13 83.9C183.264 79.952 184.83 74.7507 184.83 68.296C184.83 60.9013 183.107 54.9167 179.66 50.342C176.214 45.7673 171.576 43.48 165.748 43.48C160.798 43.48 156.756 45.3913 153.622 49.214C150.552 52.974 149.016 58.144 149.016 64.724C149.016 72.3067 150.708 78.3853 154.092 82.96C157.476 87.472 162.145 89.728 168.098 89.728ZM209.924 46.018C209.924 39.9393 208.326 36.3987 205.13 35.396H227.878C226.499 35.6467 225.34 36.6807 224.4 38.498C223.46 40.2527 222.99 42.7593 222.99 46.018V89.352H235.68C240.568 89.352 243.889 88.8507 245.644 87.848C247.461 86.8453 249.216 84.8087 250.908 81.738L248.37 98H205.6C206.853 97.7493 207.887 96.6213 208.702 94.616C209.516 92.6107 209.924 89.8533 209.924 86.344V46.018ZM37.8084 124.46C37.8084 120.82 36.5284 118.68 33.9684 118.04H48.5484L59.1684 142.22L69.6684 118.04H82.8084C81.8884 118.2 81.1084 118.86 80.4684 120.02C79.8684 121.18 79.5684 122.72 79.5684 124.64V151.22C79.5684 152.74 79.7284 153.98 80.0484 154.94C80.3684 155.9 80.7884 156.64 81.3084 157.16C81.8284 157.68 82.3284 157.96 82.8084 158H68.5284C69.3284 157.88 70.0084 157.26 70.5684 156.14C71.1284 154.98 71.4084 153.34 71.4084 151.22V128.42L57.9084 158.96L44.0484 128.48V150.86C44.0484 152.46 44.2484 153.8 44.6484 154.88C45.0484 155.92 45.5284 156.68 46.0884 157.16C46.6484 157.64 47.2284 157.92 47.8284 158H34.1484C34.7484 157.92 35.3084 157.64 35.8284 157.16C36.3884 156.68 36.8484 155.92 37.2084 154.88C37.6084 153.8 37.8084 152.46 37.8084 150.86V124.46ZM88.7428 136.46C88.7428 135.02 88.5628 133.88 88.2028 133.04C87.8428 132.16 87.4028 131.5 86.8828 131.06C86.4028 130.58 85.7228 130.24 84.8428 130.04H96.4228V147.26C96.4628 151.14 97.8028 153.08 100.443 153.08C102.043 153.08 103.383 152.46 104.463 151.22C105.543 149.98 106.083 148.52 106.083 146.84V136.04C106.083 134.4 105.843 133.06 105.363 132.02C104.883 130.98 104.123 130.32 103.083 130.04H113.703V149.24C113.703 151.04 113.943 152.4 114.423 153.32C114.903 154.24 115.743 154.7 116.943 154.7H117.783L106.323 159.14L106.263 154.76C105.183 156.04 103.823 157.06 102.183 157.82C100.543 158.54 98.9628 158.9 97.4428 158.9C91.6428 158.86 88.7428 155.54 88.7428 148.94V136.46ZM121.854 138.74C121.854 136.78 121.594 135.36 121.074 134.48C120.554 133.6 119.714 133.16 118.554 133.16H117.714L129.234 128.66L129.294 132.98C130.254 131.86 131.574 130.9 133.254 130.1C134.934 129.3 136.554 128.9 138.114 128.9C140.714 128.9 142.814 129.7 144.414 131.3C146.014 132.86 146.814 135.32 146.814 138.68V151.64C146.814 153.08 146.954 154.26 147.234 155.18C147.554 156.1 147.934 156.78 148.374 157.22C148.814 157.66 149.274 157.92 149.754 158H136.434C137.274 157.8 137.934 157.2 138.414 156.2C138.894 155.2 139.134 153.76 139.134 151.88V140.6C139.134 136.68 137.774 134.72 135.054 134.72C133.574 134.72 132.274 135.3 131.154 136.46C130.034 137.62 129.474 139.08 129.474 140.84V151.88C129.474 153.76 129.734 155.24 130.254 156.32C130.814 157.36 131.494 157.92 132.294 158H118.794C119.354 157.92 119.854 157.66 120.294 157.22C120.734 156.78 121.094 156.14 121.374 155.3C121.694 154.42 121.854 153.26 121.854 151.82V138.74ZM186.697 153.32C185.297 154.96 183.417 156.3 181.057 157.34C178.737 158.38 176.257 158.9 173.617 158.9C167.457 158.9 162.537 157.04 158.857 153.32C155.217 149.56 153.397 144.74 153.397 138.86C153.397 134.86 154.297 131.2 156.097 127.88C157.897 124.52 160.437 121.9 163.717 120.02C167.037 118.1 170.857 117.14 175.177 117.14C179.457 117.14 183.037 117.92 185.917 119.48V131C184.997 128.64 183.577 126.74 181.657 125.3C179.737 123.86 177.357 123.14 174.517 123.14C170.957 123.14 168.037 124.52 165.757 127.28C163.517 130 162.397 133.48 162.397 137.72C162.397 142.04 163.517 145.6 165.757 148.4C168.037 151.2 171.017 152.6 174.697 152.6C176.857 152.6 179.017 152.06 181.177 150.98C183.337 149.86 185.177 148.34 186.697 146.42V153.32ZM193.517 127.28C193.517 122.88 192.297 120.68 189.857 120.68H189.137L201.137 115.94V132.68C202.017 131.76 203.277 130.9 204.917 130.1C206.557 129.3 208.137 128.9 209.657 128.9C212.337 128.9 214.457 129.74 216.017 131.42C217.617 133.1 218.417 135.52 218.417 138.68V151.7C218.417 153.1 218.557 154.26 218.837 155.18C219.157 156.06 219.517 156.72 219.917 157.16C220.317 157.6 220.817 157.88 221.417 158H208.457C209.177 157.84 209.737 157.24 210.137 156.2C210.537 155.16 210.737 153.72 210.737 151.88V140.6C210.737 136.68 209.357 134.72 206.597 134.72C205.157 134.72 203.877 135.28 202.757 136.4C201.677 137.52 201.137 139 201.137 140.84V151.88C201.137 153.8 201.417 155.28 201.977 156.32C202.537 157.32 203.197 157.88 203.957 158H190.397C190.957 157.92 191.457 157.66 191.897 157.22C192.337 156.78 192.717 156.12 193.037 155.24C193.357 154.32 193.517 153.12 193.517 151.64V127.28ZM241.138 153.14C242.818 153.14 244.458 152.8 246.058 152.12C247.698 151.4 249.078 150.36 250.198 149C248.878 155.6 244.798 158.9 237.958 158.9C233.918 158.9 230.678 157.54 228.238 154.82C225.838 152.06 224.638 148.62 224.638 144.5C224.638 140.1 225.898 136.4 228.418 133.4C230.978 130.4 234.198 128.9 238.078 128.9C241.758 128.9 244.618 130.3 246.658 133.1C248.698 135.86 249.738 139.8 249.778 144.92H232.078C232.598 147.68 233.678 149.74 235.318 151.1C236.998 152.46 238.938 153.14 241.138 153.14ZM242.518 140.6C242.518 138.64 242.098 137.02 241.258 135.74C240.458 134.42 239.318 133.76 237.838 133.76C236.318 133.76 235.018 134.42 233.938 135.74C232.898 137.02 232.278 138.64 232.078 140.6H242.518ZM268.511 158.9C264.231 158.9 260.771 157.58 258.131 154.94C255.491 152.3 254.171 148.8 254.171 144.44C254.171 140.04 255.571 136.36 258.371 133.4C261.171 130.4 264.731 128.9 269.051 128.9C273.331 128.9 276.811 130.22 279.491 132.86C282.211 135.46 283.571 138.94 283.571 143.3C283.571 147.9 282.171 151.66 279.371 154.58C276.571 157.46 272.951 158.9 268.511 158.9ZM269.351 153.5C271.191 153.5 272.691 152.66 273.851 150.98C275.051 149.26 275.651 147.1 275.651 144.5C275.651 141.62 274.951 139.2 273.551 137.24C272.151 135.28 270.391 134.3 268.271 134.3C266.391 134.3 264.871 135.12 263.711 136.76C262.551 138.36 261.971 140.46 261.971 143.06C261.971 146.02 262.671 148.5 264.071 150.5C265.471 152.5 267.231 153.5 269.351 153.5ZM289.842 126.98C289.842 124.82 289.562 123.2 289.002 122.12C288.442 121.04 287.482 120.5 286.122 120.5H285.582L297.522 116.18V151.64C297.522 153.08 297.662 154.26 297.942 155.18C298.222 156.06 298.582 156.74 299.022 157.22C299.502 157.66 299.982 157.92 300.462 158H286.842C287.322 157.92 287.782 157.68 288.222 157.28C288.662 156.84 289.042 156.18 289.362 155.3C289.682 154.42 289.842 153.2 289.842 151.64V126.98Z" fill="white" fill-opacity="0.9" shape-rendering="crispEdges"/>
</g>
<defs>
<filter id="filter0_ddif_199_2083" x="0.968506" y="0.985996" width="332.494" height="191.154" filterUnits="userSpaceOnUse" color-interpolation-filters="sRGB">
<feFlood flood-opacity="0" result="BackgroundImageFix"/>
<feColorMatrix in="SourceAlpha" type="matrix" values="0 0 0 0 0 0 0 0 0 0 0 0 0 0 0 0 0 0 127 0" result="hardAlpha"/>
<feOffset/>
<feGaussianBlur stdDeviation="16.5"/>
<feComposite in2="hardAlpha" operator="out"/>
<feColorMatrix type="matrix" values="0 0 0 0 0.368627 0 0 0 0 0.266667 0 0 0 0 0.866667 0 0 0 0.44 0"/>
<feBlend mode="normal" in2="BackgroundImageFix" result="effect1_dropShadow_199_2083"/>
<feColorMatrix in="SourceAlpha" type="matrix" values="0 0 0 0 0 0 0 0 0 0 0 0 0 0 0 0 0 0 127 0" result="hardAlpha"/>
<feOffset/>
<feGaussianBlur stdDeviation="10"/>
<feComposite in2="hardAlpha" operator="out"/>
<feColorMatrix type="matrix" values="0 0 0 0 0.368627 0 0 0 0 0.266667 0 0 0 0 0.866667 0 0 0 0.66 0"/>
<feBlend mode="normal" in2="effect1_dropShadow_199_2083" result="effect2_dropShadow_199_2083"/>
<feBlend mode="normal" in="SourceGraphic" in2="effect2_dropShadow_199_2083" result="shape"/>
<feColorMatrix in="SourceAlpha" type="matrix" values="0 0 0 0 0 0 0 0 0 0 0 0 0 0 0 0 0 0 127 0" result="hardAlpha"/>
<feOffset/>
<feGaussianBlur stdDeviation="4"/>
<feComposite in2="hardAlpha" operator="arithmetic" k2="-1" k3="1"/>
<feColorMatrix type="matrix" values="0 0 0 0 0.368627 0 0 0 0 0.266667 0 0 0 0 0.866667 0 0 0 0.66 0"/>
<feBlend mode="normal" in2="shape" result="effect3_innerShadow_199_2083"/>
<feGaussianBlur stdDeviation="0.3" result="effect4_foregroundBlur_199_2083"/>
</filter>
<linearGradient id="paint0_linear_199_2083" x1="21.9854" y1="158.919" x2="596.774" y2="139.948" gradientUnits="userSpaceOnUse">
<stop stop-color="#5E44DD"/>
<stop offset="1" stop-color="#E2148E"/>
</linearGradient>
<linearGradient id="paint1_linear_199_2083" x1="166.874" y1="33" x2="166.874" y2="166" gradientUnits="userSpaceOnUse">
<stop stop-color="white"/>
<stop offset="1" stop-color="white" stop-opacity="0"/>
</linearGradient>
</defs>
</svg>
