<svg width="18" height="15" viewBox="0 0 18 15" fill="none" xmlns="http://www.w3.org/2000/svg">
<path d="M1 6.27903C0.447715 6.27903 0 6.72674 0 7.27903C0 7.83131 0.447715 8.27903 1 8.27903V6.27903ZM17 8.27903C17.5523 8.27903 18 7.83131 18 7.27903C18 6.72674 17.5523 6.27903 17 6.27903V8.27903ZM1 12.279C0.447715 12.279 0 12.7267 0 13.279C0 13.8313 0.447715 14.279 1 14.279V12.279ZM17 14.279C17.5523 14.279 18 13.8313 18 13.279C18 12.7267 17.5523 12.279 17 12.279V14.279ZM1 0.279053C0.447715 0.279053 0 0.726768 0 1.27905C0 1.83134 0.447715 2.27905 1 2.27905V0.279053ZM17 2.27905C17.5523 2.27905 18 1.83134 18 1.27905C18 0.726768 17.5523 0.279053 17 0.279053V2.27905ZM1 8.27903H17V6.27903H1V8.27903ZM1 14.279H17V12.279H1V14.279ZM1 2.27905H17V0.279053H1V2.27905Z" fill="#222222"/>
</svg>
