<svg width="22" height="22" viewBox="0 0 22 22" fill="none" xmlns="http://www.w3.org/2000/svg">
<path d="M14.6699 13.2513C14.8562 12.8814 14.7072 12.4304 14.3372 12.2442C13.9672 12.058 13.5163 12.2069 13.3301 12.5769L14.6699 13.2513ZM13.116 13.879L13.5256 14.5073L13.5285 14.5054L13.116 13.879ZM8.864 13.8542L8.44244 14.4745L8.44587 14.4768L8.864 13.8542ZM8.67619 12.5545C8.497 12.181 8.049 12.0235 7.67555 12.2027C7.3021 12.3819 7.14462 12.8299 7.32381 13.2034L8.67619 12.5545ZM8.79167 9.27893C8.79167 8.86472 8.45588 8.52893 8.04167 8.52893C7.62745 8.52893 7.29167 8.86472 7.29167 9.27893H8.79167ZM7.29167 9.87893C7.29167 10.2931 7.62745 10.6289 8.04167 10.6289C8.45588 10.6289 8.79167 10.2931 8.79167 9.87893H7.29167ZM14.7915 9.27893C14.7915 8.86472 14.4557 8.52893 14.0415 8.52893C13.6273 8.52893 13.2915 8.86472 13.2915 9.27893H14.7915ZM13.2915 9.87893C13.2915 10.2931 13.6273 10.6289 14.0415 10.6289C14.4557 10.6289 14.7915 10.2931 14.7915 9.87893H13.2915ZM13.3301 12.5769C13.2064 12.8225 12.9975 13.0591 12.7035 13.2526L13.5285 14.5054C14.0164 14.1841 14.4153 13.7572 14.6699 13.2513L13.3301 12.5769ZM12.7064 13.2507C11.7163 13.8962 10.2576 13.8867 9.28213 13.2316L8.44587 14.4768C9.92293 15.4688 12.0334 15.4801 13.5256 14.5073L12.7064 13.2507ZM9.28556 13.2339C8.99687 13.0377 8.79398 12.7999 8.67619 12.5545L7.32381 13.2034C7.56865 13.7136 7.95995 14.1466 8.44244 14.4745L9.28556 13.2339ZM7.29167 9.27893V9.87893H8.79167V9.27893H7.29167ZM13.2915 9.27893V9.87893H14.7915V9.27893H13.2915Z" fill="#5E44DD"/>
<path fill-rule="evenodd" clip-rule="evenodd" d="M10.73 19.1655L11 19.2789L11.27 19.1655C15.5089 17.3426 20.0269 13.7664 19.9999 9.18711C19.9909 6.47444 18.4429 4.31128 15.9679 3.53499C14.0689 2.94186 12.332 3.38671 11 4.79101C9.66798 3.38671 7.931 2.94186 6.03201 3.53499C3.55704 4.31128 2.00905 6.47444 2.00005 9.18711C1.98205 13.7751 6.50001 17.3513 10.73 19.1655ZM6.44601 4.78229C6.86001 4.65146 7.247 4.5904 7.625 4.5904V4.58168C8.72299 4.58168 9.66798 5.13119 10.442 6.21277L11 6.98034L11.558 6.21277C12.602 4.76485 13.9519 4.27639 15.5539 4.78229C17.8219 5.49753 18.6499 7.52985 18.6499 9.19583C18.6679 13.0511 14.5999 16.2348 11 17.8485C7.4 16.2348 3.33204 13.0511 3.35004 9.19583C3.35004 7.52985 4.16903 5.48881 6.44601 4.78229Z" fill="url(#paint0_linear_312_490)"/>
<defs>
<linearGradient id="paint0_linear_312_490" x1="3.03846" y1="5.27893" x2="15.2482" y2="20.7106" gradientUnits="userSpaceOnUse">
<stop stop-color="#5E44DD"/>
<stop offset="1" stop-color="#E2148E"/>
</linearGradient>
</defs>
</svg>
