<svg width="22" height="22" viewBox="0 0 22 22" fill="none" xmlns="http://www.w3.org/2000/svg">
<path fill-rule="evenodd" clip-rule="evenodd" d="M4 10.9998C3.99988 13.6127 5.45508 16.0082 7.774 17.2124C10.0929 18.4165 12.8895 18.2289 15.0267 16.7257L17.9996 16.9997V10.9998C17.9996 7.13393 14.8657 4 10.9998 4C7.13393 4 4 7.13393 4 10.9998Z" stroke="url(#paint0_linear_312_485)" stroke-width="1.5" stroke-linecap="round" stroke-linejoin="round"/>
<path d="M14.4457 12.2372C14.6004 11.853 14.4144 11.416 14.0302 11.2613C13.646 11.1066 13.209 11.2926 13.0543 11.6768L14.4457 12.2372ZM12.9397 13.0625L13.4134 13.6439L13.4163 13.6416L12.9397 13.0625ZM9.042 13.0341L8.55645 13.6057L8.55982 13.6085L9.042 13.0341ZM8.95018 11.6479C8.80173 11.2612 8.36791 11.068 7.98121 11.2165C7.59451 11.3649 7.40137 11.7988 7.54982 12.1855L8.95018 11.6479ZM9 8.25C9 7.83579 8.66421 7.5 8.25 7.5C7.83579 7.5 7.5 7.83579 7.5 8.25H9ZM7.5 9.16667C7.5 9.58088 7.83579 9.91667 8.25 9.91667C8.66421 9.91667 9 9.58088 9 9.16667H7.5ZM14.5 8.25C14.5 7.83579 14.1642 7.5 13.75 7.5C13.3358 7.5 13 7.83579 13 8.25H14.5ZM13 9.16667C13 9.58088 13.3358 9.91667 13.75 9.91667C14.1642 9.91667 14.5 9.58088 14.5 9.16667H13ZM13.0543 11.6768C12.9278 11.9909 12.7245 12.2682 12.4631 12.4834L13.4163 13.6416C13.8715 13.267 14.2254 12.7841 14.4457 12.2372L13.0543 11.6768ZM12.4659 12.4811C11.6072 13.1807 10.3726 13.1717 9.52418 12.4596L8.55982 13.6085C9.95959 14.7835 11.9967 14.7983 13.4134 13.6439L12.4659 12.4811ZM9.52754 12.4625C9.26987 12.2436 9.07134 11.9635 8.95018 11.6479L7.54982 12.1855C7.76107 12.7357 8.10721 13.2241 8.55646 13.6057L9.52754 12.4625ZM7.5 8.25V9.16667H9V8.25H7.5ZM13 8.25V9.16667H14.5V8.25H13Z" fill="#5E44DD"/>
<defs>
<linearGradient id="paint0_linear_312_485" x1="4.80767" y1="5.75" x2="15.7116" y2="17.9997" gradientUnits="userSpaceOnUse">
<stop stop-color="#5E44DD"/>
<stop offset="1" stop-color="#E2148E"/>
</linearGradient>
</defs>
</svg>
